:version 1.10
:name ASF
:units
  mass 1
  length 1
  angle deg
:documentation
  ASF file generated by Kaydara
:root
  axis xyz
  order  tx ty tz rx ry rz
  position 0 0 0
  orientation 0 0 0
:bonedata
  begin
    id 1
    name SpineDummy
    direction 0.999998 -0.00179978 1.38929e-006
    length 3.60008
    axis 0 0 0 xyz
  end
  begin
    id 2
    name Spine
    direction 0.964365 0.262802 0.0305839
    length 8.13928
    axis 1.33928 -1.75354 15.2838 xyz
    dof rx ry rz
  end
  begin
    id 3
    name Spine1
    direction 0.811168 0.572065 0.12144
    length 7.14954
    axis 2.2224 -6.9761 35.2157 xyz
    dof rx ry rz
  end
  begin
    id 4
    name Neck
    direction 0 0 0
    length 0
    axis 2.2224 -6.9761 35.2157 xyz
    dof rx ry rz
  end
  begin
    id 5
    name HeadDummy
    direction 0.810939 0.572387 0.121455
    length 3.55534
    axis 2.2224 -6.9761 35.2157 xyz
  end
  begin
    id 6
    name Head
    direction 0.998226 -0.000232542 0.0595419
    length 7.35666
    axis -3.03688 -3.41352 -0.0133467 xyz
    dof rx ry rz
  end
  begin
    id 7
    name R_ClavicleDummy
    direction 0.531669 -0.194489 -0.824319
    length 2.49392
    axis 2.2224 -6.9761 35.2157 xyz
  end
  begin
    id 8
    name R_Clavicle
    direction -0.155119 0.0480802 -0.986725
    length 4.485
    axis -54.2764 80.6538 162.779 xyz
    dof rx ry rz
  end
  begin
    id 9
    name R_UpperArm
    direction -0.955567 0.200068 -0.216484
    length 10.1122
    axis -72.9943 12.5026 168.175 xyz
    dof rx ry rz
  end
  begin
    id 10
    name R_Forearm
    direction -0.61433 0.385743 0.688332
    length 9.39148
    axis -117.015 -43.4982 147.875 xyz
    dof rx ry rz
  end
  begin
    id 11
    name R_Hand
    direction -0.699429 0.0170333 0.714499
    length 3.66324
    axis -45.0303 -36.7097 175.478 xyz
    dof rx ry rz
  end
  begin
    id 12
    name L_ClavicleDummy
    direction 0.40287 -0.36502 0.839319
    length 2.49392
    axis 2.2224 -6.9761 35.2157 xyz
  end
  begin
    id 13
    name L_Clavicle
    direction -0.231271 -0.0726419 0.970174
    length 4.485
    axis 18.4357 -75.9711 -162.563 xyz
    dof rx ry rz
  end
  begin
    id 14
    name L_UpperArm
    direction -0.917494 0.144359 0.370629
    length 10.1122
    axis 56.0417 -21.7544 171.058 xyz
    dof rx ry rz
  end
  begin
    id 15
    name L_Forearm
    direction -0.496786 0.615074 -0.612281
    length 9.39148
    axis 89.8094 37.7546 128.927 xyz
    dof rx ry rz
  end
  begin
    id 16
    name L_Hand
    direction -0.409932 0.64962 -0.640274
    length 3.66324
    axis -0.424369 32.133 128.52 xyz
    dof rx ry rz
  end
  begin
    id 17
    name L_ThighDummy
    direction -1.84081e-006 1.87549e-006 1
    length 3.13049
    axis 0 0 0 xyz
  end
  begin
    id 18
    name L_Thigh
    direction -0.947739 0.307978 0.083308
    length 17.9961
    axis 173.219 -4.77873 161.998 xyz
    dof rx ry rz
  end
  begin
    id 19
    name L_Calf
    direction -0.728814 -0.684427 0.0197583
    length 13.3367
    axis 167.331 -1.13214 -136.799 xyz
    dof rx ry rz
  end
  begin
    id 20
    name L_Foot
    direction -0.9028 0.418719 0.0981191
    length 5.8674
    axis 163.436 11.5135 -155.37 xyz
    dof rx ry rz
  end
  begin
    id 21
    name L_Toe0
    direction -0.35341 0.886259 0.299411
    length 4.75286
    axis 169.316 -17.4222 111.74 xyz
    dof rx ry rz
  end
  begin
    id 22
    name R_ThighDummy
    direction 9.32778e-007 -8.82053e-007 -1
    length 3.13049
    axis 0 0 0 xyz
  end
  begin
    id 23
    name R_Thigh
    direction -0.925064 0.37528 -0.0585023
    length 17.9961
    axis -178.698 3.35385 157.919 xyz
    dof rx ry rz
  end
  begin
    id 24
    name R_Calf
    direction -0.68969 -0.718776 -0.0876886
    length 13.3367
    axis -160.504 5.03065 -133.817 xyz
    dof rx ry rz
  end
  begin
    id 25
    name R_Foot
    direction -0.857405 0.418858 -0.299022
    length 5.8674
    axis -161.328 4.38911 -154.413 xyz
    dof rx ry rz
  end
  begin
    id 26
    name R_Toe0
    direction -0.100745 0.952789 -0.286433
    length 4.75286
    axis 171.683 16.6445 96.0359 xyz
    dof rx ry rz
  end
:hierarchy
  begin
    root SpineDummy L_ThighDummy R_ThighDummy
    SpineDummy Spine
    Spine Spine1
    Spine1 Neck
    Neck HeadDummy R_ClavicleDummy L_ClavicleDummy
    HeadDummy Head
    R_ClavicleDummy R_Clavicle
    R_Clavicle R_UpperArm
    R_UpperArm R_Forearm
    R_Forearm R_Hand
    L_ClavicleDummy L_Clavicle
    L_Clavicle L_UpperArm
    L_UpperArm L_Forearm
    L_Forearm L_Hand
    L_ThighDummy L_Thigh
    L_Thigh L_Calf
    L_Calf L_Foot
    L_Foot L_Toe0
    R_ThighDummy R_Thigh
    R_Thigh R_Calf
    R_Calf R_Foot
    R_Foot R_Toe0
  end

:SAMPLES-PER-SECOND 30
:FULLY-SPECIFIED
:DEGREES
506
root  2.38106 29.5801 -5.23987 71.2118 -3.8015 91.7211
Spine  -11.8118 -1.2881 -5.06935
Spine1  -13.1956 22.3941 -5.75023
Neck  3.97569e-016 0 -2.38542e-015
Head  -49.2119 -0.924583 8.99368
R_Clavicle  0.396832 -20.0797 0.863301
R_UpperArm  8.1027 -15.145 70.7548
R_Forearm  24.4228 -14.6182 12.5561
R_Hand  0.0414217 1.02348 -2.20276
L_Clavicle  -0.330997 11.5368 0.196915
L_UpperArm  -1.30771 -8.09842 -9.79146
L_Forearm  -3.36405 -3.15066 -3.64419
L_Hand  -0.519829 7.70118 -4.26383
L_Thigh  -12.1568 -8.75488 -24.4267
L_Calf  -1.93009 -2.24537 16.1483
L_Foot  8.99168 8.585 23.4128
L_Toe0  1.08186 -0.484145 9.77743
R_Thigh  1.90033 8.6204 23.8931
R_Calf  11.0367 14.3106 41.9182
R_Foot  -1.4898 -11.525 -8.26609
R_Toe0  -1.78908 -0.272834 -17.3249
507
root  1.99764 29.2568 -3.9609 68.9291 -3.47413 92.1671
Spine  -12.946 -0.186769 -6.714
Spine1  -14.4415 18.9202 -6.80755
Neck  3.97569e-016 0 -2.38542e-015
Head  -51.5554 -1.50921 8.56405
R_Clavicle  0.389691 -20.1737 0.434415
R_UpperArm  2.27934 -16.657 75.9458
R_Forearm  19.9046 -7.45252 6.21173
R_Hand  -0.0564732 -0.861878 1.93262
L_Clavicle  -0.338414 8.67957 1.48136
L_UpperArm  -1.31012 -9.98549 -16.3726
L_Forearm  -3.8423 -4.48993 -5.20523
L_Hand  -0.55855 7.5829 -4.61263
L_Thigh  -13.838 -8.96995 -29.8674
L_Calf  1.56578 -2.93744 21.5992
L_Foot  8.86777 7.88036 24.0209
L_Toe0  3.44675 -0.913948 7.37191
R_Thigh  7.714 9.2096 25.3516
R_Calf  5.87116 11.7769 36.6491
R_Foot  -1.81816 -16.3954 -11.1377
R_Toe0  -1.78931 -0.272854 -17.3256
508
root  1.70461 29.1483 -2.26898 64.5704 -2.43993 93.7094
Spine  -14.0202 1.35228 -7.93053
Spine1  -15.3845 14.7761 -8.00374
Neck  3.97569e-016 0 -2.38542e-015
Head  -53.1498 -2.01393 8.01839
R_Clavicle  0.395859 -20.8635 0.0293089
R_UpperArm  -1.63407 -17.1295 75.7882
R_Forearm  19.2645 -5.47856 4.5424
R_Hand  -0.172789 -1.7645 3.40491
L_Clavicle  -0.387459 7.79914 2.32834
L_UpperArm  -1.26689 -10.4061 -20.1974
L_Forearm  -2.97206 -6.11087 -7.10737
L_Hand  -0.546576 7.72011 -4.41346
L_Thigh  -16.7782 -10.8695 -33.5314
L_Calf  6.77663 -3.08873 22.8728
L_Foot  6.49935 7.36595 16.6263
L_Toe0  7.20109 -3.02592 12.9247
R_Thigh  8.99336 9.23608 26.4132
R_Calf  4.33133 8.54345 28.1082
R_Foot  -2.01441 -15.8974 -9.8812
R_Toe0  -1.78946 -0.272871 -17.3261
509
root  1.2376 29.2866 -0.552879 61.7899 -0.847688 94.6173
Spine  -15.5909 -0.864535 -7.18072
Spine1  -16.9216 17.635 -8.66355
Neck  3.97569e-016 0 -2.38542e-015
Head  -52.7206 -2.72345 7.08898
R_Clavicle  0.36152 -19.4346 -0.216347
R_UpperArm  -3.11126 -18.1751 69.1223
R_Forearm  21.1849 -9.60401 8.05456
R_Hand  0.0203676 -0.377183 1.41096
L_Clavicle  -0.367952 8.13909 2.01609
L_UpperArm  -2.94778 -9.23725 -22.0491
L_Forearm  -1.2196 -7.61778 -8.89329
L_Hand  -0.476429 7.92444 -3.77201
L_Thigh  -16.8006 -10.3697 -31.6242
L_Calf  13.1681 -1.87315 13.5769
L_Foot  1.00745 3.61963 0.319795
L_Toe0  14.2485 -8.901 23.6843
R_Thigh  7.77661 8.57382 25.189
R_Calf  7.40158 6.56906 20.9392
R_Foot  -2.83204 -13.203 -4.04486
R_Toe0  -1.7895 -0.27288 -17.3264
510
root  0.529968 29.305 0.748267 61.6488 0.64738 93.2482
Spine  -17.4625 -6.17425 -3.59779
Spine1  -18.9417 27.7881 -8.67282
Neck  3.97569e-016 0 -2.38542e-015
Head  -51.3206 -3.35875 6.53385
R_Clavicle  0.315488 -17.2497 -0.166677
R_UpperArm  -3.01708 -18.6063 60.3682
R_Forearm  22.4581 -16.048 13.9756
R_Hand  0.0579073 1.93153 -3.8402
L_Clavicle  -0.273365 7.80306 0.760947
L_UpperArm  -5.43623 -7.46125 -24.902
L_Forearm  -0.65548 -7.8064 -9.12041
L_Hand  -0.493112 7.67083 -4.04488
L_Thigh  -12.0491 -6.38671 -25.6602
L_Calf  15.461 0.165412 -1.54369
L_Foot  -1.99889 -0.603137 -9.25624
L_Toe0  21.9832 -10.7783 18.2034
R_Thigh  8.73082 8.51314 22.4005
R_Calf  11.1925 5.25261 16.6213
R_Foot  -2.90537 -10.6523 -0.758833
R_Toe0  -1.78936 -0.272876 -17.3262
511
root  -0.242543 29.0073 1.80202 61.2583 2.57155 90.2431
Spine  -18.9573 -10.6155 2.64426
Spine1  -20.5817 37.9526 -9.68806
Neck  3.97569e-016 0 -2.38542e-015
Head  -50.4167 -3.64062 7.23098
R_Clavicle  0.341987 -17.6123 0.24487
R_UpperArm  1.37623 -17.2125 54.1112
R_Forearm  21.6244 -23.0988 19.1797
R_Hand  -0.333076 3.87827 -10.9877
L_Clavicle  -0.196094 7.47796 -0.151525
L_UpperArm  -5.13243 -7.49805 -29.7773
L_Forearm  -2.8548 -5.70585 -6.63832
L_Hand  -0.680609 7.25441 -5.86106
L_Thigh  -6.49897 -1.74837 -18.9265
L_Calf  8.36464 2.23026 -16.8244
L_Foot  -0.390159 -0.0233799 -2.14936
L_Toe0  10.6959 -2.13597 4.29503
R_Thigh  10.6976 9.70465 18.8853
R_Calf  11.5318 4.14884 13.1435
R_Foot  -2.48477 -9.70923 -1.47486
R_Toe0  -1.78899 -0.272856 -17.3256
512
root  -0.939804 28.5803 2.91942 57.9643 4.52973 87.6922
Spine  -19.5656 -13.5 8.66717
Spine1  -21.8298 43.8738 -12.521
Neck  3.97569e-016 0 -2.38542e-015
Head  -49.6802 -4.0735 8.51045
R_Clavicle  0.401688 -20.4088 0.903612
R_UpperArm  20.5712 -15.4103 50.1308
R_Forearm  15.3787 -32.8328 21.3335
R_Hand  -0.949793 5.34412 -17.9535
L_Clavicle  -0.260185 9.00867 0.104328
L_UpperArm  -0.125974 -10.2917 -35.136
L_Forearm  -6.18968 -1.70376 -1.98116
L_Hand  -0.882911 7.22256 -7.67786
L_Thigh  -2.56544 1.63688 -11.0966
L_Calf  -3.66434 3.37961 -25.8444
L_Foot  2.81032 3.30819 8.47917
L_Toe0  -5.86385 0.694383 -2.51555
R_Thigh  12.1098 11.2538 15.6952
R_Calf  7.36557 2.76349 8.83541
R_Foot  -2.97023 -10.2783 0.0472962
R_Toe0  -1.78842 -0.272815 -17.3242
513
root  -1.51708 28.2168 4.04283 52.6139 4.5629 86.1262
Spine  -19.5487 -15.3622 11.9297
Spine1  -22.8468 47.0913 -15.3584
Neck  3.97569e-016 0 -2.38542e-015
Head  -48.0662 -5.12568 8.63312
R_Clavicle  0.426596 -22.788 1.35302
R_UpperArm  40.3609 -14.619 46.3971
R_Forearm  13.592 -38.3432 24.8485
R_Hand  -1.58461 6.28862 -23.7204
L_Clavicle  -0.36511 11.1413 1.24412
L_UpperArm  6.66142 -13.9806 -39.6511
L_Forearm  -6.87304 3.13259 3.61211
L_Hand  -0.925879 7.40517 -7.93886
L_Thigh  2.09336 4.11807 -0.114512
L_Calf  -8.07619 3.52889 -27.0883
L_Foot  4.89043 5.61603 13.5648
L_Toe0  -10.7185 1.23069 0.0821379
R_Thigh  12.8508 13.3896 14.234
R_Calf  4.19528 1.33217 4.41528
R_Foot  -4.72417 -11.8054 5.86914
R_Toe0  -1.78558 -0.272744 -17.3219
514
root  -1.97825 28.0923 5.15253 46.8766 3.89051 85.9413
Spine  -19.7722 -17.3451 12.8909
Spine1  -23.1732 49.1642 -16.0552
Neck  3.97569e-016 0 -2.38542e-015
Head  -45.8437 -6.13252 6.88756
R_Clavicle  0.433085 -23.53 1.31391
R_UpperArm  44.2025 -13.5369 42.8782
R_Forearm  20.6428 -37.4195 25.7223
R_Hand  -2.08118 6.86138 -27.7592
L_Clavicle  -0.396905 11.2981 1.90477
L_UpperArm  10.8258 -16.6932 -41.8026
L_Forearm  -3.72308 8.53208 9.96786
L_Hand  -0.858169 7.46312 -7.31213
L_Thigh  8.69306 4.13291 11.3691
L_Calf  -4.11858 2.85948 -21.7237
L_Foot  4.84679 5.48299 13.519
L_Toe0  -7.70393 0.881567 -1.53949
R_Thigh  10.8553 15.6749 13.1789
R_Calf  4.72417 0.437839 1.63272
R_Foot  -6.07783 -12.733 10.1846
R_Toe0  -1.77603 -0.272575 -17.3164
515
root  -2.23179 28.3021 6.30179 40.3928 4.77084 86.7687
Spine  -20.2902 -19.3889 12.8347
Spine1  -22.2567 48.938 -14.3532
Neck  3.97569e-016 0 -2.38542e-015
Head  -43.9375 -6.20607 4.32447
R_Clavicle  0.435307 -23.3422 0.968796
R_UpperArm  34.827 -10.6347 40.528
R_Forearm  23.9509 -33.6177 22.6964
R_Hand  -2.08375 7.28051 -27.6055
L_Clavicle  -0.349384 9.90385 1.32185
L_UpperArm  11.7446 -17.9096 -39.7687
L_Forearm  -0.194359 14.5276 17.4049
L_Hand  -0.76336 7.04471 -6.70863
L_Thigh  14.4256 1.04431 18.8928
L_Calf  -0.615146 1.49741 -11.3179
L_Foot  3.97323 5.64328 10.0628
L_Toe0  1.23073 -0.0406191 -6.54284
R_Thigh  3.74447 17.3268 10.7229
R_Calf  5.28193 0.0437962 0.404749
R_Foot  -6.26267 -11.9787 12.1193
R_Toe0  -1.76316 -0.272348 -17.3091
